<?xml version="1.0" encoding="UTF-8" standalone="no"?>
<svg
   xmlns:dc="http://purl.org/dc/elements/1.1/"
   xmlns:cc="http://creativecommons.org/ns#"
   xmlns:rdf="http://www.w3.org/1999/02/22-rdf-syntax-ns#"
   xmlns:svg="http://www.w3.org/2000/svg"
   xmlns="http://www.w3.org/2000/svg"
   xmlns:sodipodi="http://sodipodi.sourceforge.net/DTD/sodipodi-0.dtd"
   xmlns:inkscape="http://www.inkscape.org/namespaces/inkscape"
   width="28.57604mm"
   height="14.28697mm"
   viewBox="0 0 28.57604 14.28697"
   version="1.1"
   id="svg8"
   inkscape:version="1.0.2-2 (e86c870879, 2021-01-15)"
   sodipodi:docname="half oval.svg">
  <defs
     id="defs2" />
  <sodipodi:namedview
     id="base"
     pagecolor="#ffffff"
     bordercolor="#666666"
     borderopacity="1.0"
     inkscape:pageopacity="0.0"
     inkscape:pageshadow="2"
     inkscape:zoom="3.959798"
     inkscape:cx="40.62177"
     inkscape:cy="-6.3053221"
     inkscape:document-units="mm"
     inkscape:current-layer="layer1"
     inkscape:document-rotation="0"
     showgrid="false"
     inkscape:window-width="1280"
     inkscape:window-height="1361"
     inkscape:window-x="3671"
     inkscape:window-y="-9"
     inkscape:window-maximized="0"
     fit-margin-top="0"
     fit-margin-left="0"
     fit-margin-right="0"
     fit-margin-bottom="0" />
  <metadata
     id="metadata5">
    <rdf:RDF>
      <cc:Work
         rdf:about="">
        <dc:format>image/svg+xml</dc:format>
        <dc:type
           rdf:resource="http://purl.org/dc/dcmitype/StillImage" />
        <dc:title></dc:title>
      </cc:Work>
    </rdf:RDF>
  </metadata>
  <g
     inkscape:label="Layer 1"
     inkscape:groupmode="layer"
     id="layer1"
     transform="translate(-135.87015,-187.2285)">
    <path
       id="path2749"
       style="color:#000000;font-style:normal;font-variant:normal;font-weight:normal;font-stretch:normal;font-size:medium;line-height:normal;font-family:sans-serif;font-variant-ligatures:normal;font-variant-position:normal;font-variant-caps:normal;font-variant-numeric:normal;font-variant-alternates:normal;font-variant-east-asian:normal;font-feature-settings:normal;font-variation-settings:normal;text-indent:0;text-align:start;text-decoration:none;text-decoration-line:none;text-decoration-style:solid;text-decoration-color:#000000;letter-spacing:normal;word-spacing:normal;text-transform:none;writing-mode:lr-tb;direction:ltr;text-orientation:mixed;dominant-baseline:auto;baseline-shift:baseline;text-anchor:start;white-space:normal;shape-padding:0;shape-margin:0;inline-size:0;clip-rule:nonzero;display:inline;overflow:visible;visibility:visible;isolation:auto;mix-blend-mode:normal;color-interpolation:sRGB;color-interpolation-filters:linearRGB;solid-color:#000000;solid-opacity:1;vector-effect:none;fill:#000000;fill-opacity:1;fill-rule:nonzero;stroke:none;stroke-width:1;stroke-linecap:butt;stroke-linejoin:miter;stroke-miterlimit:4;stroke-dasharray:none;stroke-dashoffset:0;stroke-opacity:1;color-rendering:auto;image-rendering:auto;shape-rendering:auto;text-rendering:auto;enable-background:accumulate;stop-color:#000000"
       d="m 143.01443,187.2285 c -3.9533,0 -7.14428,3.18942 -7.14428,7.14272 0,3.95327 3.19098,7.14425 7.14428,7.14425 h 14.28697 c 3.9533,0 7.14479,-3.19098 7.14479,-7.14425 0,-3.9533 -3.19149,-7.14272 -7.14479,-7.14272 z m 0,0.50178 h 0.2744 v 13.28344 h -0.2744 c -0.13954,0 -0.27765,-0.006 -0.41497,-0.014 V 187.7442 c 0.13732,-0.008 0.27543,-0.014 0.41497,-0.014 z m 0.43461,0 h 0.68934 v 13.28344 h -0.68934 z m 0.84748,0 h 0.68935 v 13.28344 h -0.68935 z m 0.84956,0 h 0.68937 v 13.28344 h -0.68937 z m 0.84801,0 h 0.68937 v 13.28344 h -0.68937 z m 0.84955,0 h 0.68937 v 13.28344 h -0.68937 z m 0.84752,0 h 0.6914 v 13.28344 h -0.6914 z m 0.84955,0 h 0.68937 v 13.28344 h -0.68937 z m 0.84748,0 h 0.69144 v 13.28344 h -0.69144 z m 0.84958,0 h 0.68987 v 13.28344 h -0.68987 z m 0.84799,0 h 0.69143 v 13.28344 h -0.69143 z m 0.84958,0 h 0.68934 v 13.28344 h -0.68934 z m 0.84955,0 h 0.68937 v 13.28344 h -0.68937 z m 0.84748,0 h 0.68938 v 13.28344 h -0.68938 z m 0.84958,0 h 0.68988 v 13.28344 h -0.68988 z m 0.84799,0 h 0.68937 v 13.28344 h -0.68937 z m 0.84958,0 h 0.68937 v 13.28344 h -0.68937 z m 0.84748,0 h 0.2744 c 0.14026,0 0.27903,0.006 0.41704,0.0145 v 13.25448 c -0.13801,0.008 -0.27678,0.0145 -0.41704,0.0145 h -0.2744 z m -14.58565,0.0258 v 13.23176 c -0.23421,-0.0198 -0.46498,-0.0514 -0.69144,-0.0946 v -13.04261 c 0.22646,-0.0432 0.45723,-0.0748 0.69144,-0.0946 z m 15.4352,5.3e-4 c 0.2335,0.0198 0.46358,0.051 0.68938,0.094 v 13.04261 c -0.2258,0.0431 -0.45588,0.0743 -0.68938,0.094 z m -16.28478,0.12607 v 12.97855 c -0.23506,-0.0508 -0.46501,-0.11485 -0.68988,-0.18965 v -12.59975 c 0.22487,-0.0748 0.45482,-0.13835 0.68988,-0.18915 z m 17.1328,5.3e-4 c 0.23537,0.0509 0.46577,0.11422 0.69093,0.18912 v 12.59872 c -0.22518,0.075 -0.45553,0.13875 -0.69093,0.18965 z m -17.98082,0.24236 v 12.49277 c -0.2373,-0.0857 -0.46775,-0.18512 -0.69141,-0.29609 v -11.90109 c 0.22366,-0.11091 0.45411,-0.20997 0.69141,-0.29559 z m 18.8304,5.3e-4 c 0.23661,0.0854 0.46633,0.18444 0.68934,0.29506 v 11.90109 c -0.22304,0.11065 -0.45273,0.21008 -0.68934,0.29559 z m -19.67995,0.37568 v 11.73985 c -0.23916,-0.12681 -0.46889,-0.26813 -0.68937,-0.42219 v -10.89547 c 0.22048,-0.15398 0.45021,-0.29546 0.68937,-0.42219 z m 20.52743,0 c 0.23985,0.1271 0.47041,0.26924 0.69144,0.42373 v 10.89236 c -0.22103,0.1546 -0.45159,0.2966 -0.69144,0.42376 z m -21.37698,0.53588 v 10.66808 c -0.24355,-0.18118 -0.47336,-0.37938 -0.68937,-0.59168 v -9.48471 c 0.21601,-0.21222 0.44582,-0.41058 0.68937,-0.59169 z m 22.22654,0 c 0.24354,0.18111 0.47336,0.37947 0.68937,0.59169 v 9.48471 c -0.21601,0.2123 -0.44583,0.4105 -0.68937,0.59168 z m -23.07405,0.75343 v 9.1612 c -0.25215,-0.26535 -0.48369,-0.5507 -0.68935,-0.85524 v -7.45175 c 0.20561,-0.30435 0.43725,-0.58899 0.68935,-0.85421 z m 23.92362,0.002 c 0.25207,0.2654 0.48382,0.55014 0.68935,0.85473 v 7.44657 c -0.20558,0.30475 -0.43723,0.59023 -0.68935,0.85577 z m -24.77317,1.10228 v 6.95203 c -0.29208,-0.47736 -0.52491,-0.99505 -0.68988,-1.54308 v -3.86643 c 0.16494,-0.5479 0.3978,-1.06535 0.68988,-1.54252 z m 25.62066,0 c 0.29181,0.47672 0.52496,0.99364 0.68987,1.54098 v 3.86953 c -0.16494,0.54745 -0.39806,1.06461 -0.68987,1.54152 z m -26.46868,2.17969 v 2.59209 c -0.082,-0.41896 -0.12557,-0.85209 -0.12557,-1.29603 0,-0.44395 0.0436,-0.87712 0.12557,-1.29606 z m 27.31876,0.0114 c 0.0806,0.41543 0.12401,0.84474 0.12401,1.28469 0,0.43995 -0.0435,0.86921 -0.12401,1.28468 z" />
  </g>
</svg>
