<?xml version="1.0" encoding="UTF-8" standalone="no"?>
<svg
   xmlns:dc="http://purl.org/dc/elements/1.1/"
   xmlns:cc="http://creativecommons.org/ns#"
   xmlns:rdf="http://www.w3.org/1999/02/22-rdf-syntax-ns#"
   xmlns:svg="http://www.w3.org/2000/svg"
   xmlns="http://www.w3.org/2000/svg"
   xmlns:sodipodi="http://sodipodi.sourceforge.net/DTD/sodipodi-0.dtd"
   xmlns:inkscape="http://www.inkscape.org/namespaces/inkscape"
   width="27.28516mm"
   height="13.64258mm"
   viewBox="0 0 27.285161 13.64258"
   version="1.1"
   id="svg8"
   inkscape:version="1.0.2-2 (e86c870879, 2021-01-15)"
   sodipodi:docname="half rhombus.svg">
  <defs
     id="defs2" />
  <sodipodi:namedview
     id="base"
     pagecolor="#ffffff"
     bordercolor="#666666"
     borderopacity="1.0"
     inkscape:pageopacity="0.0"
     inkscape:pageshadow="2"
     inkscape:zoom="1.4"
     inkscape:cx="-54.110949"
     inkscape:cy="8.8829927"
     inkscape:document-units="mm"
     inkscape:current-layer="layer1"
     inkscape:document-rotation="0"
     showgrid="false"
     fit-margin-top="0"
     fit-margin-left="0"
     fit-margin-right="0"
     fit-margin-bottom="0"
     inkscape:window-width="1278"
     inkscape:window-height="1351"
     inkscape:window-x="3672"
     inkscape:window-y="0"
     inkscape:window-maximized="0" />
  <metadata
     id="metadata5">
    <rdf:RDF>
      <cc:Work
         rdf:about="">
        <dc:format>image/svg+xml</dc:format>
        <dc:type
           rdf:resource="http://purl.org/dc/dcmitype/StillImage" />
        <dc:title></dc:title>
      </cc:Work>
    </rdf:RDF>
  </metadata>
  <g
     inkscape:label="Layer 1"
     inkscape:groupmode="layer"
     id="layer1"
     transform="translate(-104.10394,-162.14119)">
    <path
       class="shape"
       id="path5300"
       style="fill:#000000;fill-opacity:1;stroke:none;stroke-width:0.423333;stroke-linecap:square;stroke-miterlimit:4;stroke-dasharray:none;stroke-opacity:1;paint-order:markers fill stroke;stop-color:#000000"
       d="m 117.74652,162.14119 -13.64258,6.82024 13.64258,6.82234 0.18915,-0.0941 13.45343,-6.72828 z m 0,0.94517 0.42323,0.21135 v 11.3285 l -0.42323,0.21188 -0.42375,-0.21188 v -11.328 z m -0.84698,0.42323 v 10.90475 l -0.84646,-0.42323 v -10.0583 z m 1.69344,0 0.84645,0.42322 v 10.05883 l -0.84645,0.42322 z m 1.26971,0.63457 0.84695,0.42376 v 8.78861 l -0.84695,0.42323 z m -4.23334,5.3e-4 v 9.63454 l -0.84648,-0.42323 v -8.78808 z m -1.26971,0.63458 v 8.36538 l -0.84695,-0.42375 v -7.51787 z m 6.77323,0 0.84648,0.42323 v 7.51893 l -0.84648,0.42322 z m -8.04344,0.6351 v 7.09518 l -0.84645,-0.42323 v -6.24872 z m 9.31365,0 0.84646,0.42323 v 6.24872 l -0.84646,0.42323 z m -10.58333,0.63458 v 5.82549 l -0.84698,-0.42376 v -4.97797 z m 11.85302,0 0.84698,0.42376 v 4.9785 l -0.84698,0.42323 z m -13.12323,0.63511 v 4.55528 l -0.84646,-0.42323 v -3.70883 z m 14.39344,0 0.84645,0.42322 v 3.70883 l -0.84645,0.42323 z m 1.26971,0.6346 0.84695,0.42373 v 2.43861 l -0.84695,0.42323 z m -16.93334,5e-4 v 3.28507 l -0.84648,-0.42323 v -2.43861 z m -1.26971,0.63461 v 2.01535 l -0.84695,-0.42322 v -1.1684 z m 19.47323,0 0.84648,0.42322 v 1.16891 l -0.84648,0.42322 z m -20.74344,0.63508 v 0.74517 l -0.74517,-0.37259 z m 22.01365,0 0.74518,0.37258 -0.74518,0.37259 z" />
  </g>
</svg>
