<?xml version="1.0" encoding="UTF-8" standalone="no"?>
<svg
   xmlns:dc="http://purl.org/dc/elements/1.1/"
   xmlns:cc="http://creativecommons.org/ns#"
   xmlns:rdf="http://www.w3.org/1999/02/22-rdf-syntax-ns#"
   xmlns:svg="http://www.w3.org/2000/svg"
   xmlns="http://www.w3.org/2000/svg"
   xmlns:sodipodi="http://sodipodi.sourceforge.net/DTD/sodipodi-0.dtd"
   xmlns:inkscape="http://www.inkscape.org/namespaces/inkscape"
   width="26.83042mm"
   height="13.600355mm"
   viewBox="0 0 26.83042 13.600355"
   version="1.1"
   id="svg8"
   inkscape:version="1.0.2-2 (e86c870879, 2021-01-15)"
   sodipodi:docname="half wave.svg">
  <defs
     id="defs2" />
  <sodipodi:namedview
     id="base"
     pagecolor="#ffffff"
     bordercolor="#666666"
     borderopacity="1.0"
     inkscape:pageopacity="0.0"
     inkscape:pageshadow="2"
     inkscape:zoom="1.4"
     inkscape:cx="-41.372656"
     inkscape:cy="13.115837"
     inkscape:document-units="mm"
     inkscape:current-layer="layer1"
     inkscape:document-rotation="0"
     showgrid="false"
     fit-margin-top="0"
     fit-margin-left="0"
     fit-margin-right="0"
     fit-margin-bottom="0"
     inkscape:window-width="1278"
     inkscape:window-height="1351"
     inkscape:window-x="3672"
     inkscape:window-y="0"
     inkscape:window-maximized="0" />
  <metadata
     id="metadata5">
    <rdf:RDF>
      <cc:Work
         rdf:about="">
        <dc:format>image/svg+xml</dc:format>
        <dc:type
           rdf:resource="http://purl.org/dc/dcmitype/StillImage" />
        <dc:title></dc:title>
      </cc:Work>
    </rdf:RDF>
  </metadata>
  <g
     inkscape:label="Layer 1"
     inkscape:groupmode="layer"
     id="layer1"
     transform="translate(-100.7336,-161.02125)">
    <path
       class="shape"
       id="path5021"
       style="color:#000000;font-style:normal;font-variant:normal;font-weight:normal;font-stretch:normal;font-size:medium;line-height:normal;font-family:sans-serif;font-variant-ligatures:normal;font-variant-position:normal;font-variant-caps:normal;font-variant-numeric:normal;font-variant-alternates:normal;font-variant-east-asian:normal;font-feature-settings:normal;font-variation-settings:normal;text-indent:0;text-align:start;text-decoration:none;text-decoration-line:none;text-decoration-style:solid;text-decoration-color:#000000;letter-spacing:normal;word-spacing:normal;text-transform:none;writing-mode:lr-tb;direction:ltr;text-orientation:mixed;dominant-baseline:auto;baseline-shift:baseline;text-anchor:start;white-space:normal;shape-padding:0;shape-margin:0;inline-size:0;clip-rule:nonzero;display:inline;overflow:visible;visibility:visible;isolation:auto;mix-blend-mode:normal;color-interpolation:sRGB;color-interpolation-filters:linearRGB;solid-color:#000000;solid-opacity:1;vector-effect:none;fill:#000000;fill-opacity:1;fill-rule:nonzero;stroke:none;stroke-width:1;stroke-linecap:butt;stroke-linejoin:miter;stroke-miterlimit:4;stroke-dasharray:none;stroke-dashoffset:0;stroke-opacity:1;color-rendering:auto;image-rendering:auto;shape-rendering:auto;text-rendering:auto;enable-background:accumulate;stop-color:#000000"
       d="m 125.14763,161.02193 c -0.58049,-0.0146 -1.09289,0.20918 -1.56993,0.50384 -0.47704,0.29467 -0.93795,0.6662 -1.45727,1.02733 -1.03868,0.72231 -2.28695,1.41594 -4.29123,1.41594 -1.48878,0 -3.10075,-0.56176 -4.72426,-1.14824 -1.62351,-0.5865 -3.2562,-1.19941 -4.85757,-1.19941 -2.92306,0 -4.85333,1.32369 -5.99035,2.93005 -1.13702,1.60634 -1.52342,3.46152 -1.52342,4.67569 0,1.90897 0.32375,3.22114 0.83408,4.09379 0.51032,0.87268 1.24462,1.30069 1.94508,1.30069 1.25973,0 2.18358,-0.76176 3.20551,-1.42782 1.0219,-0.66606 2.14944,-1.28931 3.89638,-1.28931 1.28696,0 2.26158,0.38332 3.45096,0.79531 1.18938,0.41195 2.57871,0.83973 4.56872,0.83973 5.79096,0 8.92969,-4.35771 8.92969,-8.53903 0,-1.04513 -0.28869,-1.9953 -0.71729,-2.71092 -0.42857,-0.71564 -0.9983,-1.2501 -1.6991,-1.26764 z m 0.008,0.85214 c 0.19952,0.0233 0.54163,0.2418 0.84645,0.67233 v 5.73556 c -0.22807,0.49903 -0.50908,0.97753 -0.84645,1.42214 z m -0.42376,0.0496 v 8.28736 c -0.25731,0.28204 -0.53925,0.54737 -0.84645,0.79115 v -8.6651 c 0.0454,-0.0299 0.0927,-0.0631 0.13694,-0.0904 0.25739,-0.15899 0.48673,-0.26424 0.70951,-0.32298 z m -16.50958,0.54417 v 9.00409 c -0.3013,0.10818 -0.58203,0.23188 -0.84698,0.36483 v -9.32397 c 0.27019,-0.0277 0.5515,-0.0442 0.84698,-0.045 z m 0.42323,0.0186 c 0.27586,0.0198 0.55827,0.0584 0.84646,0.11316 v 8.54625 c -0.29758,0.0463 -0.57981,0.10869 -0.84646,0.18553 z m -1.69344,0.0816 v 9.49346 c -0.24418,0.13877 -0.47725,0.2813 -0.69503,0.42325 -0.0537,0.0349 -0.0992,0.0653 -0.15142,0.0997 v -9.82678 c 0.26643,-0.0786 0.54874,-0.14197 0.84645,-0.18965 z m 16.51011,0.062 v 8.68164 c -0.26615,0.1815 -0.54827,0.34858 -0.84699,0.49866 v -8.56949 c 0.30869,-0.21505 0.58759,-0.42312 0.84699,-0.61081 z m -13.54699,0.0568 c 0.2775,0.0651 0.56092,0.14406 0.84699,0.22995 v 8.14784 c -0.0499,-0.001 -0.097,-0.006 -0.1478,-0.006 -0.24225,0 -0.47511,0.0115 -0.69919,0.0326 z m -4.23333,0.21135 v 9.96529 c -0.29477,0.19428 -0.57811,0.37621 -0.84645,0.52089 v -10.08568 c 0.26228,-0.15084 0.54266,-0.28636 0.84645,-0.4005 z m 5.50355,0.14986 c 0.27836,0.09 0.56229,0.18878 0.84645,0.28887 v 7.86413 c -0.27138,-0.0534 -0.55184,-0.0943 -0.84645,-0.11782 z m 15.23989,0.32557 c 0.17669,0.47731 0.29043,1.03521 0.29043,1.62676 0,0.71197 -0.097,1.4296 -0.29043,2.12545 z m -13.96968,0.11369 c 0.12118,0.0435 0.23982,0.0841 0.36174,0.12816 0.16017,0.0579 0.3234,0.11383 0.48471,0.17156 v 7.75457 c -0.27659,-0.0904 -0.55774,-0.17349 -0.84645,-0.24546 z m 9.73635,0.0362 v 8.48476 c -0.27004,0.11554 -0.55235,0.21767 -0.84646,0.30591 v -8.31371 c 0.30313,-0.15113 0.58679,-0.31136 0.84646,-0.47696 z m -17.77979,0.0429 v 10.01593 c -0.27879,0.11274 -0.5569,0.18373 -0.84699,0.19119 v -9.48158 c 0.25252,-0.26242 0.53399,-0.5062 0.84699,-0.72554 z m 9.31312,0.37002 c 0.28141,0.0982 0.5628,0.19515 0.84698,0.28471 v 7.75251 c -0.0753,-0.0256 -0.15496,-0.0491 -0.22944,-0.0749 -0.2073,-0.0718 -0.41206,-0.14338 -0.61754,-0.21445 z m 7.19698,0.25786 v 8.23516 c -0.27283,0.0666 -0.55496,0.12231 -0.84698,0.16433 v -8.09048 c 0.30242,-0.0883 0.5805,-0.19503 0.84698,-0.30901 z m -5.92677,0.15346 c 0.28123,0.0818 0.56333,0.15745 0.84646,0.22169 v 7.78714 c -0.29607,-0.0741 -0.57425,-0.15727 -0.84646,-0.24392 z m 4.65656,0.26614 v 8.0295 c -0.27395,0.027 -0.55663,0.0414 -0.84645,0.046 v -7.93181 c 0.29638,-0.0343 0.57901,-0.0822 0.84645,-0.14367 z m -3.38688,0.0403 c 0.28181,0.0529 0.56404,0.0968 0.84699,0.12351 v 7.81814 c -0.29665,-0.0383 -0.58021,-0.0845 -0.84699,-0.14057 z m -13.12322,0.12507 v 8.924 c -0.27655,-0.10584 -0.56931,-0.34343 -0.84233,-0.81029 -0.001,-0.002 -0.003,-0.005 -0.004,-0.008 v -6.7014 c 0.17844,-0.39057 0.39317,-0.778 0.65268,-1.14464 0.0622,-0.0878 0.12689,-0.17441 0.19378,-0.25992 z m 15.23989,0.016 v 7.89149 c -0.29678,-0.006 -0.57915,-0.0208 -0.84645,-0.0449 v -7.83363 c 0.0979,0.004 0.19558,0.007 0.29352,0.007 0.19029,0 0.37331,-0.008 0.55293,-0.0196 z m -16.50958,2.54402 v 4.47157 c -0.1761,-0.65696 -0.29146,-1.50445 -0.29146,-2.58382 0,-0.49969 0.0877,-1.16917 0.29146,-1.88775 z" />
  </g>
</svg>
