<?xml version="1.0" encoding="UTF-8" standalone="no"?>
<svg
   xmlns:dc="http://purl.org/dc/elements/1.1/"
   xmlns:cc="http://creativecommons.org/ns#"
   xmlns:rdf="http://www.w3.org/1999/02/22-rdf-syntax-ns#"
   xmlns:svg="http://www.w3.org/2000/svg"
   xmlns="http://www.w3.org/2000/svg"
   xmlns:sodipodi="http://sodipodi.sourceforge.net/DTD/sodipodi-0.dtd"
   xmlns:inkscape="http://www.inkscape.org/namespaces/inkscape"
   width="28.574471mm"
   height="14.287661mm"
   viewBox="0 0 28.57447 14.28766"
   version="1.1"
   id="svg8"
   inkscape:version="1.0.2-2 (e86c870879, 2021-01-15)"
   sodipodi:docname="half wave.svg">
  <defs
     id="defs2" />
  <sodipodi:namedview
     id="base"
     pagecolor="#ffffff"
     bordercolor="#666666"
     borderopacity="1.0"
     inkscape:pageopacity="0.0"
     inkscape:pageshadow="2"
     inkscape:zoom="3.959798"
     inkscape:cx="53.794935"
     inkscape:cy="9.879711"
     inkscape:document-units="mm"
     inkscape:current-layer="layer1"
     inkscape:document-rotation="0"
     showgrid="false"
     inkscape:window-width="1280"
     inkscape:window-height="1361"
     inkscape:window-x="3671"
     inkscape:window-y="-9"
     inkscape:window-maximized="0"
     fit-margin-top="0"
     fit-margin-left="0"
     fit-margin-right="0"
     fit-margin-bottom="0" />
  <metadata
     id="metadata5">
    <rdf:RDF>
      <cc:Work
         rdf:about="">
        <dc:format>image/svg+xml</dc:format>
        <dc:type
           rdf:resource="http://purl.org/dc/dcmitype/StillImage" />
        <dc:title></dc:title>
      </cc:Work>
    </rdf:RDF>
  </metadata>
  <g
     inkscape:label="Layer 1"
     inkscape:groupmode="layer"
     id="layer1"
     transform="translate(-132.38475,-182.94621)">
    <path
       class="shape"
       id="path2538"
       style="color:#000000;font-style:normal;font-variant:normal;font-weight:normal;font-stretch:normal;font-size:medium;line-height:normal;font-family:sans-serif;font-variant-ligatures:normal;font-variant-position:normal;font-variant-caps:normal;font-variant-numeric:normal;font-variant-alternates:normal;font-variant-east-asian:normal;font-feature-settings:normal;font-variation-settings:normal;text-indent:0;text-align:start;text-decoration:none;text-decoration-line:none;text-decoration-style:solid;text-decoration-color:#000000;letter-spacing:normal;word-spacing:normal;text-transform:none;writing-mode:lr-tb;direction:ltr;text-orientation:mixed;dominant-baseline:auto;baseline-shift:baseline;text-anchor:start;white-space:normal;shape-padding:0;shape-margin:0;inline-size:0;clip-rule:nonzero;display:inline;overflow:visible;visibility:visible;isolation:auto;mix-blend-mode:normal;color-interpolation:sRGB;color-interpolation-filters:linearRGB;solid-color:#000000;solid-opacity:1;vector-effect:none;fill:#000000;fill-opacity:1;fill-rule:nonzero;stroke:none;stroke-width:1;stroke-linecap:butt;stroke-linejoin:miter;stroke-miterlimit:4;stroke-dasharray:none;stroke-dashoffset:0;stroke-opacity:1;color-rendering:auto;image-rendering:auto;shape-rendering:auto;text-rendering:auto;enable-background:accumulate;stop-color:#000000"
       d="m 158.54905,182.94687 c -0.57158,-0.0143 -1.08318,0.20522 -1.58234,0.51367 -0.49916,0.30847 -0.99608,0.71009 -1.56424,1.10537 -1.13631,0.79053 -2.5394,1.56631 -4.75372,1.56631 -1.65915,0 -3.41908,-0.6195 -5.17385,-1.25368 -1.75477,-0.63417 -3.5039,-1.28518 -5.18004,-1.28518 -3.09761,0 -5.10532,1.38787 -6.30245,3.07991 -1.19716,1.69203 -1.60766,3.66903 -1.60766,4.93561 0,2.0397 0.34684,3.42511 0.87127,4.32221 0.52441,0.89712 1.24727,1.30278 1.92389,1.30278 1.275,0 2.23793,-0.78166 3.35174,-1.50794 1.11385,-0.72628 2.38229,-1.42729 4.32015,-1.42729 1.43142,0 2.51634,0.42502 3.79666,0.86868 1.28032,0.44365 2.74844,0.89659 4.86947,0.89659 6.15498,0 9.44129,-4.60486 9.44129,-9.02322 0,-1.09114 -0.30393,-2.08531 -0.74621,-2.82413 -0.44225,-0.7388 -1.02412,-1.25368 -1.66396,-1.26969 z m -0.0749,0.50541 v 9.1059 c -0.21222,0.25265 -0.44347,0.49239 -0.68937,0.72089 v -9.67383 c 0.23085,-0.0933 0.45767,-0.14978 0.68937,-0.15296 z m 0.16018,0.0124 c 0.20693,0.0385 0.44976,0.17983 0.68937,0.41807 v 7.45019 c -0.20272,0.35581 -0.43265,0.69823 -0.68937,1.02422 z m -1.00769,0.20878 v 9.75135 c -0.21823,0.19214 -0.44826,0.37484 -0.69141,0.5457 v -9.88726 c 0.10001,-0.0686 0.19926,-0.13531 0.29556,-0.19482 0.13581,-0.0839 0.26657,-0.15335 0.39585,-0.21497 z m 1.8552,0.38137 c 0.10367,0.12319 0.20503,0.263 0.29972,0.42116 0.14891,0.24877 0.28202,0.53552 0.39016,0.84955 v 3.91811 c -0.1614,0.61902 -0.39161,1.22346 -0.68988,1.79835 z m -19.18695,0.0424 c 0.11796,0 0.23726,0.005 0.35709,0.0119 v 10.01231 c -0.24212,0.0746 -0.46903,0.16222 -0.68938,0.25477 v -10.26967 c 0.11023,-0.004 0.21873,-0.009 0.33229,-0.009 z m -0.49249,0.0135 v 10.33322 c -0.24061,0.10729 -0.47125,0.22104 -0.68935,0.34161 v -10.61125 c 0.22254,-0.029 0.45138,-0.0515 0.68935,-0.0636 z m 1.00769,0.009 c 0.22683,0.0185 0.45667,0.0478 0.68937,0.0873 v 9.70793 c -0.23966,0.043 -0.46953,0.0959 -0.68937,0.15812 z m 15.967,0.0739 v 9.88158 c -0.22011,0.14708 -0.44977,0.28527 -0.68938,0.41341 v -9.79837 c 0.2389,-0.17391 0.47541,-0.34488 0.68938,-0.49662 z m -17.82218,0.003 v 10.67999 c -0.24082,0.13856 -0.47268,0.28019 -0.69143,0.4227 v -10.97039 c 0.22103,-0.0539 0.45288,-0.0965 0.69143,-0.1323 z m 2.70476,0.0424 c 0.22727,0.0426 0.4573,0.0941 0.68934,0.15243 v 9.42218 c -0.23886,0.0151 -0.46857,0.0399 -0.68934,0.0744 z m -3.55431,0.13279 v 11.03189 c -0.23762,0.15681 -0.46993,0.31231 -0.68987,0.45526 v -11.26648 c 0.21905,-0.084 0.45045,-0.15642 0.68987,-0.22067 z m 4.40232,0.06 c 0.22802,0.0601 0.45749,0.12549 0.68935,0.19688 v 9.18032 c -0.1143,-0.005 -0.2267,-0.013 -0.3452,-0.013 -0.11703,0 -0.23133,0.003 -0.34415,0.008 z m -5.25033,0.22685 v 11.3006 c -0.23453,0.14888 -0.4643,0.28305 -0.69144,0.3974 v -11.36364 c 0.21807,-0.1224 0.44876,-0.23395 0.69144,-0.33436 z m 6.09988,0.0175 c 0.2281,0.0721 0.45826,0.14909 0.68938,0.22841 v 8.98911 c -0.22286,-0.0354 -0.45178,-0.0631 -0.68938,-0.079 z m 12.57184,0.12866 v 9.76636 c -0.22212,0.11268 -0.45265,0.21685 -0.69091,0.3121 v -9.60406 c 0.1565,-0.0998 0.30711,-0.20071 0.45165,-0.30128 0.0857,-0.0596 0.15724,-0.11419 0.23926,-0.17312 z m -11.72435,0.15608 c 0.22902,0.0796 0.46014,0.16227 0.69144,0.24545 v 8.86511 c -0.22474,-0.0585 -0.45583,-0.10764 -0.69144,-0.14986 z m -7.79693,0.12401 v 11.34816 c -0.22759,0.10441 -0.45542,0.18818 -0.68937,0.23874 v -11.11044 c 0.21437,-0.17087 0.4445,-0.32956 0.68937,-0.47646 z m 8.64651,0.17727 c 0.0833,0.0301 0.16499,0.0582 0.24855,0.0883 0.14605,0.0528 0.29411,0.10347 0.44079,0.15607 v 8.81806 c -0.2277,-0.075 -0.45677,-0.14552 -0.68934,-0.20981 z m 10.02522,0.11213 v 9.57099 c -0.22283,0.0841 -0.45289,0.15996 -0.68937,0.22788 v -9.4144 c 0.24289,-0.12282 0.47265,-0.25128 0.68937,-0.38447 z m -9.17773,0.18809 c 0.23039,0.0821 0.45976,0.1659 0.69143,0.24445 v 8.80928 c -0.23159,-0.081 -0.4622,-0.16246 -0.69143,-0.23979 z m -10.34357,0.13282 v 11.00707 c -0.12388,0.019 -0.24961,0.0295 -0.37828,0.0295 -0.10096,0 -0.20558,-0.0153 -0.31107,-0.0413 v -10.31772 c 0.20913,-0.2385 0.43977,-0.46485 0.68935,-0.67747 z m 18.67381,0.14521 v 9.3767 c -0.22476,0.0603 -0.45471,0.11417 -0.69143,0.15915 v -9.24232 c 0.24273,-0.0898 0.47244,-0.18855 0.69143,-0.29353 z m -7.48069,0.0185 c 0.22955,0.0765 0.4595,0.14957 0.68987,0.2191 v 8.81962 c -0.21061,-0.0679 -0.42434,-0.13499 -0.62682,-0.20516 -0.0212,-0.007 -0.0418,-0.0143 -0.0631,-0.0217 z m 13.58056,0.0419 c 0.079,0.35943 0.12506,0.74234 0.12506,1.13948 0,0.4867 -0.0427,0.97546 -0.12506,1.45984 z m -12.73255,0.22325 c 0.23019,0.0674 0.4608,0.12904 0.69144,0.18603 v 8.84235 c -0.2403,-0.0631 -0.46654,-0.13264 -0.69144,-0.2031 z m 5.78311,0.0661 v 9.21287 c -0.22477,0.039 -0.45408,0.072 -0.68935,0.0966 v -9.1059 c 0.24048,-0.0591 0.46987,-0.12768 0.68935,-0.20359 z m -4.93356,0.15914 c 0.22977,0.054 0.45956,0.10094 0.68937,0.14108 v 8.85116 c -0.23823,-0.0454 -0.46868,-0.0952 -0.68937,-0.15039 z m 4.084,0.0822 v 9.08421 c -0.22479,0.0201 -0.45518,0.0317 -0.68937,0.0382 v -8.99893 c 0.23956,-0.0323 0.46861,-0.0741 0.68937,-0.12351 z m -3.23442,0.0889 c 0.22998,0.0366 0.45971,0.0655 0.68934,0.0847 v 8.8682 c -0.23947,-0.028 -0.4682,-0.0628 -0.68934,-0.10181 z m -14.58775,0.0418 v 10.07743 c -0.23111,-0.0883 -0.46556,-0.24728 -0.68937,-0.50229 v -8.5757 c 0.1166,-0.20275 0.24342,-0.40291 0.38137,-0.5979 0.0968,-0.13677 0.20053,-0.26988 0.308,-0.40154 z m 16.97469,0.0114 v 8.98395 c -0.0562,0 -0.11076,0.004 -0.16746,0.004 -0.18116,0 -0.35128,-0.007 -0.52244,-0.014 v -8.92144 c 0.23881,-0.009 0.46797,-0.027 0.6899,-0.0527 z m -1.53945,0.0419 c 0.16766,0.0109 0.33551,0.0185 0.50281,0.0185 0.0635,0 0.12422,-0.003 0.18656,-0.004 v 8.91365 c -0.23881,-0.0116 -0.46845,-0.0288 -0.68937,-0.0517 z m -16.28479,1.2397 v 8.08324 c -0.0577,-0.0801 -0.11417,-0.1668 -0.16952,-0.26149 -0.20307,-0.34737 -0.38171,-0.80309 -0.52038,-1.36734 v -4.65347 c 0.15523,-0.58412 0.37655,-1.19919 0.6899,-1.80094 z m -0.84802,2.50788 v 3.13778 c -0.0798,-0.54748 -0.1261,-1.17393 -0.1261,-1.89238 0,-0.35349 0.0426,-0.78208 0.1261,-1.2454 z" />
  </g>
</svg>
