<?xml version="1.0" encoding="UTF-8" standalone="no"?>
<svg
   xmlns:dc="http://purl.org/dc/elements/1.1/"
   xmlns:cc="http://creativecommons.org/ns#"
   xmlns:rdf="http://www.w3.org/1999/02/22-rdf-syntax-ns#"
   xmlns:svg="http://www.w3.org/2000/svg"
   xmlns="http://www.w3.org/2000/svg"
   xmlns:sodipodi="http://sodipodi.sourceforge.net/DTD/sodipodi-0.dtd"
   xmlns:inkscape="http://www.inkscape.org/namespaces/inkscape"
   width="26.828329mm"
   height="13.59969mm"
   viewBox="0 0 26.82833 13.59969"
   version="1.1"
   id="svg8"
   inkscape:version="1.0.2-2 (e86c870879, 2021-01-15)"
   sodipodi:docname="half oval.svg">
  <defs
     id="defs2" />
  <sodipodi:namedview
     id="base"
     pagecolor="#ffffff"
     bordercolor="#666666"
     borderopacity="1.0"
     inkscape:pageopacity="0.0"
     inkscape:pageshadow="2"
     inkscape:zoom="1.4"
     inkscape:cx="-42.102029"
     inkscape:cy="13.101739"
     inkscape:document-units="mm"
     inkscape:current-layer="layer1"
     inkscape:document-rotation="0"
     showgrid="false"
     fit-margin-top="0"
     fit-margin-left="0"
     fit-margin-right="0"
     fit-margin-bottom="0"
     inkscape:window-width="1278"
     inkscape:window-height="1351"
     inkscape:window-x="3672"
     inkscape:window-y="0"
     inkscape:window-maximized="0" />
  <metadata
     id="metadata5">
    <rdf:RDF>
      <cc:Work
         rdf:about="">
        <dc:format>image/svg+xml</dc:format>
        <dc:type
           rdf:resource="http://purl.org/dc/dcmitype/StillImage" />
        <dc:title></dc:title>
      </cc:Work>
    </rdf:RDF>
  </metadata>
  <g
     inkscape:label="Layer 1"
     inkscape:groupmode="layer"
     id="layer1"
     transform="translate(-100.92658,-161.02498)">
    <path
       class="shape"
       id="path5298"
       style="fill:#000000;fill-opacity:1;stroke:none;stroke-width:0.423333;stroke-linecap:square;stroke-miterlimit:4;stroke-dasharray:none;stroke-opacity:1;paint-order:markers fill stroke;stop-color:#000000"
       d="m 107.72925,161.02498 c -3.76118,0 -6.80267,3.04128 -6.80267,6.80114 0,3.75986 3.04149,6.79855 6.80267,6.79855 h 13.22298 c 3.76118,0 6.80268,-3.03869 6.80268,-6.79855 0,-3.75986 -3.0415,-6.80114 -6.80268,-6.80114 z m 0,0.84801 h 0.68472 v 11.90625 h -0.68472 c -0.0544,0 -0.10816,-0.003 -0.16224,-0.004 v -11.89797 c 0.0541,-0.001 0.10782,-0.004 0.16224,-0.004 z m 1.10795,0 h 0.84648 v 11.90625 h -0.84648 z m 1.26971,0 h 0.84695 v 11.90625 h -0.84695 z m 1.27018,0 h 0.84648 v 11.90625 h -0.84648 z m 1.27021,0 h 0.84646 v 11.90625 h -0.84646 z m 1.26971,0 h 0.84696 v 11.90625 h -0.84696 z m 1.27019,0 h 0.84648 v 11.90625 h -0.84648 z m 1.26971,0 h 0.84695 v 11.90625 h -0.84695 z m 1.27018,0 h 0.84648 v 11.90625 h -0.84648 z m 1.27021,0 h 0.84646 v 11.90625 h -0.84646 z m 1.26971,0 h 0.68522 c 0.0543,0 0.10784,0.003 0.16174,0.004 v 11.89797 c -0.0539,0.001 -0.10747,0.004 -0.16174,0.004 h -0.68522 z m -13.12325,0.0284 v 11.84939 c -0.28914,-0.0278 -0.57126,-0.0771 -0.84646,-0.14417 v -11.56158 c 0.2752,-0.0671 0.55732,-0.11586 0.84646,-0.14364 z m 14.39344,0 c 0.28895,0.0277 0.57147,0.0761 0.84648,0.14314 v 11.56261 c -0.27501,0.067 -0.55753,0.11591 -0.84648,0.14364 z m 1.26971,0.26355 c 0.29331,0.095 0.57599,0.21177 0.84695,0.3488 v 10.62416 c -0.27096,0.13706 -0.55364,0.25437 -0.84695,0.34933 z m -16.93334,5.1e-4 v 11.32128 c -0.293,-0.0949 -0.57576,-0.21193 -0.84648,-0.34883 v -10.62416 c 0.27072,-0.13687 0.55348,-0.25336 0.84648,-0.34829 z m -1.26971,0.58396 v 10.15338 c -0.30151,-0.18486 -0.58454,-0.39592 -0.84695,-0.62994 v -8.89352 c 0.26244,-0.23403 0.54541,-0.44506 0.84695,-0.62992 z m 19.47323,0 c 0.30126,0.18473 0.58431,0.39558 0.84648,0.62941 v 8.89453 c -0.26217,0.23384 -0.54522,0.44468 -0.84648,0.62944 z m -20.74341,1.04592 v 8.06101 c -0.3284,-0.35782 -0.61333,-0.75592 -0.84648,-1.187 v -5.68648 c 0.23315,-0.43111 0.51808,-0.82971 0.84648,-1.18753 z m 22.01362,5e-4 c 0.3283,0.35799 0.61347,0.75677 0.84646,1.18806 v 5.68439 c -0.23299,0.4313 -0.51816,0.82957 -0.84646,1.18753 z m -23.28333,2.17819 v 3.70363 c -0.18852,-0.58221 -0.29144,-1.20388 -0.29144,-1.85155 0,-0.6477 0.10292,-1.26987 0.29144,-1.85208 z m 24.55304,0.003 c 0.18775,0.58132 0.29041,1.20245 0.29041,1.84899 0,0.64651 -0.10266,1.26714 -0.29041,1.84846 z" />
  </g>
</svg>
